<svg width="1286" height="403" viewBox="0 0 1286 403" fill="none" xmlns="http://www.w3.org/2000/svg">
<path fill-rule="evenodd" clip-rule="evenodd" d="M173.824 331.049C269.828 281.922 347.656 178.611 347.659 100.299C347.66 64.8609 331.724 40.6145 305.378 29.2408C362.006 27.6002 399.999 58.6114 399.997 116.331C399.994 203.153 314.025 317.528 207.98 371.794C109.807 422.032 28.845 403.144 17.3672 331.178C45.5329 364.081 105.008 366.265 173.824 331.049Z" fill="#32C096"/>
<path fill-rule="evenodd" clip-rule="evenodd" d="M173.824 331.049C269.828 281.922 347.656 178.611 347.659 100.299C347.66 64.8609 331.724 40.6145 305.378 29.2408C362.006 27.6002 399.999 58.6114 399.997 116.331C399.994 203.153 314.025 317.528 207.98 371.794C109.807 422.032 28.845 403.144 17.3672 331.178C45.5329 364.081 105.008 366.265 173.824 331.049Z" fill="url(#paint0_linear)"/>
<path fill-rule="evenodd" clip-rule="evenodd" d="M173.824 331.049C269.828 281.922 347.656 178.611 347.659 100.299C347.66 64.8609 331.724 40.6145 305.378 29.2408C362.006 27.6002 399.999 58.6114 399.997 116.331C399.994 203.153 314.025 317.528 207.98 371.794C109.807 422.032 28.845 403.144 17.3672 331.178C45.5329 364.081 105.008 366.265 173.824 331.049Z" fill="url(#paint1_linear)"/>
<ellipse rx="138.043" ry="100.611" transform="matrix(0.890211 -0.455548 -3.59565e-05 1 122.892 163.496)" fill="url(#paint2_linear)"/>
<path d="M809.965 400.46C789.578 400.46 771.812 396.383 756.667 388.228C741.814 379.782 730.31 368.278 722.155 353.715C714.291 339.153 710.359 322.698 710.359 304.349C710.359 286.583 714.728 270.419 723.465 255.857C732.494 241.004 744.581 229.354 759.725 220.908C775.161 212.17 792.199 207.802 810.839 207.802C834.721 207.802 854.526 214.791 870.253 228.771C885.98 242.751 896.756 261.973 902.581 286.438L759.289 336.677C764.24 345.706 771.23 352.842 780.258 358.084C789.287 363.035 799.48 365.511 810.839 365.511C818.994 365.511 826.712 364.055 833.993 361.142C841.274 358.23 848.264 354.443 854.962 349.784L873.748 379.927C864.428 386.044 854.089 390.995 842.73 394.781C831.663 398.567 820.741 400.46 809.965 400.46ZM750.551 302.165C750.26 305.66 750.406 309.009 750.988 312.213L856.273 273.332C852.196 264.594 846.225 256.876 838.362 250.178C830.789 243.479 820.596 240.13 807.781 240.13C791.18 240.13 777.491 245.955 766.715 257.604C755.939 269.254 750.551 284.108 750.551 302.165Z" fill="#323232"/>
<path d="M1074.98 380.801C1066.82 387.5 1057.07 392.742 1045.71 396.528C1034.35 400.314 1022.99 402.207 1011.63 402.207C992.12 402.207 974.791 398.276 959.647 390.412C944.793 382.548 933.143 371.481 924.697 357.21C916.542 342.939 912.465 326.193 912.465 306.97C912.465 287.748 916.834 271.147 925.571 257.168C934.599 242.897 946.249 231.829 960.52 223.966C975.083 216.102 990.81 212.17 1007.7 212.17C1022.26 212.17 1035.22 214.209 1046.58 218.286C1057.94 222.364 1067.84 227.897 1076.29 234.887L1055.76 261.536C1050.51 257.75 1044.11 254.255 1036.54 251.051C1028.96 247.556 1020.52 245.809 1011.2 245.809C1000.42 245.809 990.664 248.576 981.927 254.109C973.189 259.352 966.2 266.633 960.957 275.953C955.715 284.981 953.094 295.321 953.094 306.97C953.094 318.329 955.715 328.668 960.957 337.988C966.2 347.308 973.481 354.735 982.8 360.268C992.12 365.802 1002.9 368.569 1015.13 368.569C1022.7 368.569 1029.69 367.404 1036.1 365.074C1042.8 362.744 1048.77 359.54 1054.01 355.463L1074.98 380.801Z" fill="#323232"/>
<path d="M1086.18 305.66C1086.18 287.603 1090.4 271.293 1098.84 256.731C1107.58 242.168 1119.52 230.664 1134.67 222.218C1149.81 213.772 1167.14 209.549 1186.66 209.549C1206.17 209.549 1223.35 213.772 1238.21 222.218C1253.06 230.664 1264.56 242.168 1272.72 256.731C1281.16 271.293 1285.39 287.603 1285.39 305.66C1285.39 323.717 1281.16 340.027 1272.72 354.589C1264.56 369.151 1252.91 380.801 1237.77 389.538C1222.92 397.984 1205.59 402.207 1185.78 402.207C1166.56 402.207 1149.38 398.276 1134.23 390.412C1119.38 382.548 1107.58 371.336 1098.84 356.773C1090.4 342.211 1086.18 325.173 1086.18 305.66ZM1127.24 306.097C1127.24 317.746 1129.72 328.377 1134.67 337.988C1139.91 347.308 1146.9 354.735 1155.64 360.268C1164.38 365.802 1174.28 368.569 1185.34 368.569C1196.7 368.569 1206.75 365.802 1215.49 360.268C1224.23 354.735 1231.07 347.308 1236.02 337.988C1241.26 328.377 1243.88 317.746 1243.88 306.097C1243.88 294.447 1241.26 283.962 1236.02 274.642C1231.07 265.031 1224.23 257.459 1215.49 251.925C1206.75 246.1 1196.7 243.188 1185.34 243.188C1174.28 243.188 1164.23 246.1 1155.2 251.925C1146.46 257.75 1139.62 265.468 1134.67 275.079C1129.72 284.399 1127.24 294.738 1127.24 306.097Z" fill="#323232"/>
<path d="M472 403V123H548.786C576.449 123 599.976 127.26 619.366 135.78C638.757 144.042 654.398 155.144 666.291 169.086C678.442 183.028 687.232 198.519 692.662 215.559C698.35 232.341 701.194 249.252 701.194 266.292C701.194 287.205 697.445 306.181 689.947 323.221C682.45 340.003 672.237 354.332 659.31 366.209C646.384 378.085 631.518 387.251 614.713 393.705C598.166 399.902 580.715 403 562.359 403H472ZM509.617 366.596H554.991C575.415 366.596 593.642 362.594 609.671 354.591C625.959 346.587 638.757 334.969 648.064 319.736C657.371 304.245 662.025 285.527 662.025 263.581C662.025 240.861 657.113 221.755 647.288 206.264C637.723 190.773 624.925 179.026 608.896 171.022C593.125 163.018 576.32 159.017 558.481 159.017H509.617V366.596Z" fill="#323232"/>
<defs>
<linearGradient id="paint0_linear" x1="326.665" y1="29.3334" x2="371.998" y2="214.667" gradientUnits="userSpaceOnUse">
<stop stop-color="#00533A"/>
<stop offset="1" stop-color="#32C096" stop-opacity="0"/>
</linearGradient>
<linearGradient id="paint1_linear" x1="34.6641" y1="378.667" x2="235.998" y2="354" gradientUnits="userSpaceOnUse">
<stop stop-color="#0CED99"/>
<stop offset="1" stop-color="#32C096" stop-opacity="0"/>
</linearGradient>
<linearGradient id="paint2_linear" x1="407.761" y1="27.4839" x2="131.963" y2="273.299" gradientUnits="userSpaceOnUse">
<stop stop-color="#00533A"/>
<stop offset="0.616654" stop-color="#32C096"/>
<stop offset="1" stop-color="#0CED99"/>
</linearGradient>
</defs>
</svg>